<?xml version="1.0" encoding="utf-8"?>

<!DOCTYPE svg PUBLIC "-//W3C//DTD SVG 1.1//EN" "http://www.w3.org/Graphics/SVG/1.1/DTD/svg11.dtd">
<svg version="1.1" id="Layer_1" xmlns="http://www.w3.org/2000/svg" xmlns:xlink="http://www.w3.org/1999/xlink" x="0px" y="0px"
	 viewBox="0 0 1593 1344" enable-background="new 0 0 1593 1344" xml:space="preserve">
<path d="M179.26,52.89c0.13-5.87,2.54-12.92,8.71-14.83c2.89,0.62,4.99,2.91,6.99,4.92c5.37,5.83,9.9,12.37,14.36,18.91
	c17.3,26.16,32.62,53.56,47.77,81.01c15.72,28.76,30.87,57.84,45.62,87.11c-7.53-18.96-13.95-38.35-19.58-57.96
	c-5.17-18.26-9.69-36.74-12.32-55.55c-1.35-11.56-2.54-23.43,0.02-34.92c1.2-4.67,3.24-9.62,7.49-12.28
	c3.55-2.4,8.13-2.33,12.18-1.55c2.46,0.5,3.71,2.92,4.72,4.97c2.53,5.65,3.84,11.74,5.11,17.76c2.86,14.42,4.58,29.02,6.71,43.55
	c0.6,4,1.27,8,2.39,11.9c10.47,37.31,24.45,73.71,42.6,107.99c12.36,23.16,26.56,45.41,43.25,65.71
	c22.67,28.3,50.88,51.44,79.18,73.85c30.61,23.98,62.16,46.74,93.48,69.79c48.87,35.81,97.73,71.71,144.62,110.12
	c12.96,10.66,26,21.26,38.06,32.97c36.94,35.56,69.73,75.1,102.27,114.63c16.06,19.48,31.84,39.19,47.94,58.64
	c14.11-35.64,32.1-69.54,48.71-104.03c16.55-36.09,31.16-73.24,51.75-107.3c7.33-11.63,15.11-23.29,25.7401-32.18
	c6.39-5.28,14.6799-9.16,23.14-8.08c7.0399,1.08,11.5399,7.35,14.36,13.36c3.46,6.63,4.98,14.55,10.5499,19.88
	c0.27-8.21-1.99-16.1801-3.5-24.17c-5.7799-27.57-11.26-55.92-7.49-84.16c2.3201-17.26,9.37-34.57,22.77-46.16
	c3.6801-3.08,7.83-7.46,13.14-5.87c8.55,2.29,15.21,8.66,21.39,14.68c11.8199,12.47,22.2999,26.51,29.23,42.3
	c-4.9399-22.11-9.38-44.36-11.97-66.88c-1.8301-17.64-2.9601-35.6,0.28-53.16c1.8199-9.35,5.1399-18.91,12.08-25.73
	c5.26-4.98,12.71-8.3,20.04-7.02c5.9199,0.95,11.22,4.2,15.5499,8.24c7.8,7.08,13.7001,15.92,19.15,24.85
	c4.88,8.27,9.64,16.64,13.49,25.44c0.3-0.1,0.88-0.28,1.17-0.37l-1.4301-0.93c-1.9299-7.74-5.11-15.09-7.4-22.72
	c-4.24-12.86-8.0399-25.88-10.73-39.16c-2.25-11.24-3.4399-22.66-5.02-34.01c-1.4099-12.72-2.3999-25.9,1.1001-38.38
	c2.0199-7.36,6.2799-14.21,12.5299-18.71c6.4401-4.85,14.1001-9.87,22.5701-8.59c7.71,1.46,12.64,8.44,16.22,14.87
	c7.9301,15,12.6899,31.38,19.16,47.02c4.88,11.94,10.0499,23.92,17.26,34.67c-4.4-23.44-10.3201-46.63-13.04-70.36
	c-2.21-21.58-2.73-43.66,2.03-64.94c2.37-10.26,6.02-20.48,12.5-28.9c5.97-7.64,14.5599-13.56,24.22-15.21
	c6.13-1.09,12.33,1.82,16.36,6.37c5.29,6,8.29,13.6,10.63,21.15c6.72,22.96,8.49,46.95,11.23,70.61c1.79,14.15,2.72,28.6,7.23,42.22
	c6.14-25.59,5.6001-52.12,5.9401-78.26c0.27-21.14,0.72-42.72,7.38-63c5.83-18.54,10.6699-37.89,21.6799-54.19
	c5.9-8.81,14.6901-16.22,25.3301-18.21c7.3199-1.09,15.97-0.91,21.48,4.78c6.5,6.65,7.16,16.8,6.0599,25.55
	c-2.63,22.58-3.84,45.32-3.49,68.06c-0.2999,13.77,1.66,27.43,3.15,41.09c3.27,30.23,7.51,60.46,7.58,90.91
	c6.92-44.78,14.3401-89.55,24.41-133.75c3.2001-16.03,12.09-30.23,22.3301-42.7c5.9099-6.75,12.36-13.47,20.6499-17.25
	c4.61-2.12,10.55-2.71,14.76,0.64c5.64,4.47,7.64,11.8,9.3101,18.48c5.66,24.8,5.1,50.41,8.1699,75.55
	c1.4501,12.7,3.3301,25.35,4.37,38.09c4.38,50.77-0.84,102.5-16.5599,151.04c-10.21,31.8-24.97,62.1-43.4301,89.93
	c-22.3899,33.85-48.58,65.01-75.71,95.14c-50.09,55.52-104.3099,107.11-155.22,161.87c-11.05,12-21.8,24.29-32.09,36.95
	c-14.0901,17.24-28.77,33.99-42.6801,51.38c-8.7,11.1-17.16,22.8-21.63,36.32c-3.72,11.12-4.42,23.03-3.53,34.65
	c23.8-1.57,47.74-3.23,71.01-8.7401c10.12-2.5,20.3301-5.64,28.9601-11.69c16.0199-11.33,33.6-21.0099,52.7999-25.64
	c21.73-5.36,44.64-3.56,66.15,1.94c13.24,3.49,27.0599,7.03,37.88,15.89c13.9,11,22.87,27.12,27.99,43.87
	c4.83,15.82,6.71,32.5,5.73,49.01c-0.11,5.44-1.7,10.67-2.97,15.9c8.12,25.45,10.86,52.83,6.35,79.25
	c-13.54-13.51-27.0599-27.21-42.55-38.52c-11.8199-7.97-26.45-10.59-40.48-10.47c-1.63-0.17-3.11,0.47-4.4199,1.32
	c-18.9701,11.43-37.49,23.59-55.54,36.43c-12.85,8.79-24.99,18.6-37.96,27.22c-14.88,9.9501-31.15,17.5701-47.67,24.37
	c-17.38,7.23-34.74,14.9-50.29,25.64c-8.74,5.76-16.75,12.52-24.75,19.25c-15.7,12.86-33.25,23.2-50.9399,33.05
	c-34.54,19.0299-70.67,35.09-107.51,49.14c-41.02,15.1799-83.14,28.6-126.77,33.5499c-17.66,1.8-35.41,0.63-53.11,0.75
	c-50.66-0.4-101.35-1.1-151.97,1.4301c-49.58,2.39-99.26,7.49-147.54,19.39c-45.29,10.88-90.32,22.8099-135.63,33.6
	c-45.08,10.83-90.42,20.87-136.34,27.48c-24.39,3.34-48.95,5.91-73.6,5.91c-21.45-0.25-43.14-1.0901-64.04-6.36
	c-15.18-3.8201-30.07-10.8401-40.56-22.76c-8.19-8.9801-13.62-19.9801-19.15-30.6901c-2.75-5.6899-6.69-11.27-6.5-17.85
	c0.09-6.01,3.82-11.26,8.34-14.92c8.22-6.71,18.28-10.5599,28.22-13.9299c21.13-6.87,43.06-10.8401,64.91-14.67
	c44.36-7.76,89.25-12.75,133.11-23.22c19.62-5.16,39.19-10.9401,57.64-19.46c17.37-8,32.91-19.3101,48.08-30.8101
	c30.29-22.95,60.92-45.49,92.59-66.52c14.07-9.71,28.7-18.58,42.75-28.3099c-19.49-9.42-38.06-20.64-56.31-32.2401
	c-52.32-33.77-101.42-73.25-142.31-120.4c-26-30.14-48.46-63.71-63.5-100.69c-15.15-37.09-21.89-77.85-17.42-117.77
	c1.07-9.9,2.8-19.72,5.03-29.42c-22.92-1.51-45.59-6.36-67.29-13.85c-15.56-5.66-31.17-12.49-43.61-23.68
	c-7.6-6.88-14.08-16.41-13.72-27.04c1.35-4.35,6.2-6.1,9.96-7.88c17.36-6.55,36.03-8.62,54.45-9.6
	c-16.65-5.22-32.9-12.68-46.46-23.8c-9.51-7.9-17.67-18.99-17.93-31.8c-0.39-5.28,0.99-11.05,5.22-14.55
	c5.38-4.55,12.8-5.05,19.53-5.51c18.51-0.37,36.81,3.79,55.31,3.55c-17.55-5.22-33.09-15.38-47.95-25.79
	c-12.39-9.01-24.4-18.81-34.15-30.69c-4.27-5.34-8.3-11.2-9.88-17.95c-1.84-6.78,1.93-14.64,8.48-17.29
	c5.21-2.09,11.02-1.45,16.39-0.38c18.84,4.01,36.03,13.37,54.81,17.58c3.95,0.87,7.98,1.52,12.04,1.4
	c-13.98-3.82-26.79-10.88-39-18.53c-13.46-8.58-26.23-18.26-38.03-29.01c-7.71-7.29-15.55-14.84-20.27-24.5
	c-4.8-9.55-9.09-20.28-7.48-31.15c0.66-5.41,5.46-9.56,10.88-9.64c16.47-0.55,32.41,4.33,48.21,8.29
	c-18.85-7.75-36.91-19.5-48.16-36.86c-7.33-11.26-10.75-25.2-8.47-38.52c0.69-3.83,3.1-7.94,7.26-8.58
	c5.84-0.63,11.3,2.19,16.23,4.95c13.63,7.97,25.27,18.75,38.01,27.99c1.83,1.36,3.82,2.48,5.88,3.45
	c-19.21-20.64-37.85-42.36-50.73-67.64c-6.05-12.28-10.98-25.72-10.22-39.62c0.31-7.16,2.53-14.34,6.78-20.14
	c1.61-2.25,4.79-1.7,7-0.83c7.04,2.85,12.76,8,18.53,12.78c11.44,9.77,21.9,20.61,32.78,30.97c4.18,3.69,7.96,7.89,12.73,10.85
	c-5.8-6.93-10.57-14.64-15.47-22.21c-12.03-19.11-23.25-38.8-32.37-59.47c-4.09-9.65-7.95-19.57-9.39-30.01
	c-0.59-5.08-0.61-11.12,3.38-14.92c2.73-2.31,7.14-3.76,10.25-1.34c5.53,4.08,9.8,9.6,14.04,14.95
	c17.36,22.69,31.88,47.36,48.1,70.84c9.93,13.22,18.28,27.55,28.48,40.56c2.94,3.69,5.93,7.39,9.62,10.37
	c-18.12-28.98-34.3-59.3-46.73-91.17C183.95,81.63,178.86,67.56,179.26,52.89z"/>
</svg>
